<?xml version="1.0" encoding="UTF-8"?>
<svg xmlns="http://www.w3.org/2000/svg" viewBox="0 0 1600 900">
<defs>
 <linearGradient id="sky" x2="0" y2="1"><stop stop-color="#141312"/><stop offset=".55" stop-color="#34302a"/><stop offset="1" stop-color="#0c0c0b"/></linearGradient>
 <radialGradient id="light"><stop stop-color="#c58b3e" stop-opacity=".42"/><stop offset="1" stop-color="#c58b3e" stop-opacity="0"/></radialGradient>
 <filter id="blur"><feGaussianBlur stdDeviation="40"/></filter>
</defs>
<rect width="1600" height="900" fill="url(#sky)"/>
<ellipse cx="780" cy="250" rx="520" ry="320" fill="url(#light)" filter="url(#blur)"/>
<path d="M0 690 Q400 580 800 700 T1600 660 V900 H0Z" fill="#090909"/>
<g fill="none" stroke="#e7d9ad" opacity=".25">
 <path d="M0 110 H1600"/><path d="M0 180 H1600"/><path d="M0 250 H1600"/><path d="M0 320 H1600"/>
</g>
<g opacity=".65"><circle cx="80" cy="130" r="2" fill="#c58b3e"/><circle cx="215" cy="235" r="3" fill="#c58b3e"/><circle cx="350" cy="340" r="4" fill="#c58b3e"/><circle cx="485" cy="445" r="2" fill="#c58b3e"/><circle cx="620" cy="130" r="3" fill="#c58b3e"/><circle cx="755" cy="235" r="4" fill="#c58b3e"/><circle cx="890" cy="340" r="2" fill="#c58b3e"/><circle cx="1025" cy="445" r="3" fill="#c58b3e"/><circle cx="1160" cy="130" r="4" fill="#c58b3e"/><circle cx="1295" cy="235" r="2" fill="#c58b3e"/><circle cx="1430" cy="340" r="3" fill="#c58b3e"/><circle cx="1565" cy="445" r="4" fill="#c58b3e"/></g>
<text x="80" y="760" fill="#eee" font-family="Arial" font-size="74" font-weight="900" letter-spacing="8">BOOT WORKSHOP</text>
<text x="84" y="812" fill="#aaa" font-family="Arial" font-size="16" letter-spacing="6">CAW HELPER / ARCHIVE WORLD</text>
</svg>