<svg xmlns="http://www.w3.org/2000/svg" viewBox="0 0 570 620" role="img" aria-label="night-blossom physical wrestling mask"><defs><radialGradient id="g" cx="35%" cy="18%" r="85%"><stop stop-color="#d8c2a5" stop-opacity=".85"/><stop offset=".22" stop-color="#5a244e"/><stop offset=".75" stop-color="#5a244e"/><stop offset="1" stop-color="#17101a"/></radialGradient><linearGradient id="r" x1="0" y1="0" x2="1" y2="1"><stop stop-color="#d8c2a5"/><stop offset=".45" stop-color="#5a244e"/><stop offset="1" stop-color="#17101a"/></linearGradient><filter id="b"><feGaussianBlur stdDeviation="14"/></filter><clipPath id="c"><path d="M285 48C198 48 142 115 147 220L162 380C169 458 216 523 285 552C354 523 401 458 408 380L423 220C428 115 372 48 285 48Z"/></clipPath></defs><ellipse cx="285" cy="558" rx="170" ry="24" fill="#000" opacity=".65" filter="url(#b)"/><path d="M285 38C190 38 132 111 138 222L153 389C160 470 213 535 285 566C357 535 410 470 417 389L432 222C438 111 380 38 285 38Z" fill="#08090a" stroke="#000" stroke-width="18"/><path d="M285 54C202 54 150 120 154 221L168 378C174 447 219 503 285 534C351 503 396 447 402 378L416 221C420 120 368 54 285 54Z" fill="url(#g)" stroke="url(#r)" stroke-width="10"/><g clip-path="url(#c)"><ellipse cx="215" cy="120" rx="130" ry="95" fill="#fff" opacity=".13"/><path d="M285 52V535" stroke="#17101a" stroke-width="5" opacity=".65"/><path d="M285 155C255 80 285 80 285 155 M285 155C255 80 285 80 285 155 M285 155C255 80 285 80 285 155 M285 155C255 80 285 80 285 155 M285 155C255 80 285 80 285 155 M285 155C255 80 285 80 285 155 M285 155C255 80 285 80 285 155 M285 155C255 80 285 80 285 155" fill="none" stroke="#d8c2a5" stroke-width="8" stroke-linecap="round" stroke-linejoin="round"/><path d="M210 228L260 198L270 225L225 252Z M360 228L310 198L300 225L345 252Z" fill="#17101a" stroke="#d8c2a5" stroke-width="6"/><path d="M238 310Q285 330 332 310" stroke="#d8c2a5" stroke-width="10" fill="none" stroke-linecap="round"/><path d="M174 298Q210 330 220 414M396 298Q360 330 350 414" stroke="#d8c2a5" stroke-width="5" fill="none" opacity=".72"/></g><path d="M154 222Q285 162 416 222M168 378Q285 426 402 378" stroke="#08090a" stroke-width="6" fill="none" opacity=".82"/><path d="M285 55V534" stroke="#d8c2a5" stroke-width="3" stroke-dasharray="5 9"/><circle cx="180" cy="212" r="5" fill="#d8c2a5"/><circle cx="390" cy="212" r="5" fill="#d8c2a5"/><circle cx="198" cy="377" r="4" fill="#d8c2a5"/><circle cx="372" cy="377" r="4" fill="#d8c2a5"/><path d="M150 228Q132 300 158 390" stroke="#fff" stroke-opacity=".12" stroke-width="9" fill="none"/><path d="M420 228Q438 300 412 390" stroke="#000" stroke-opacity=".4" stroke-width="12" fill="none"/></svg>